<?xml version="1.0" encoding="UTF-8" standalone="yes"?>
<!-- Created with qrencode 3.4.2 (http://fukuchi.org/works/qrencode/index.html.en) -->
<svg width="3.92cm" height="3.92cm" viewBox="0 0 37 37" preserveAspectRatio="none" version="1.1" xmlns="http://www.w3.org/2000/svg">
	<g id="QRcode">
		<rect x="0" y="0" width="37" height="37" fill="#ffffff" />
		<g id="Pattern">
			<rect x="4" y="4" width="7" height="1" fill="#000000" />
			<rect x="12" y="4" width="1" height="1" fill="#000000" />
			<rect x="14" y="4" width="2" height="1" fill="#000000" />
			<rect x="20" y="4" width="1" height="1" fill="#000000" />
			<rect x="26" y="4" width="7" height="1" fill="#000000" />
			<rect x="4" y="5" width="1" height="1" fill="#000000" />
			<rect x="10" y="5" width="1" height="1" fill="#000000" />
			<rect x="13" y="5" width="1" height="1" fill="#000000" />
			<rect x="16" y="5" width="1" height="1" fill="#000000" />
			<rect x="18" y="5" width="2" height="1" fill="#000000" />
			<rect x="21" y="5" width="1" height="1" fill="#000000" />
			<rect x="24" y="5" width="1" height="1" fill="#000000" />
			<rect x="26" y="5" width="1" height="1" fill="#000000" />
			<rect x="32" y="5" width="1" height="1" fill="#000000" />
			<rect x="4" y="6" width="1" height="1" fill="#000000" />
			<rect x="6" y="6" width="3" height="1" fill="#000000" />
			<rect x="10" y="6" width="1" height="1" fill="#000000" />
			<rect x="17" y="6" width="2" height="1" fill="#000000" />
			<rect x="20" y="6" width="1" height="1" fill="#000000" />
			<rect x="22" y="6" width="1" height="1" fill="#000000" />
			<rect x="26" y="6" width="1" height="1" fill="#000000" />
			<rect x="28" y="6" width="3" height="1" fill="#000000" />
			<rect x="32" y="6" width="1" height="1" fill="#000000" />
			<rect x="4" y="7" width="1" height="1" fill="#000000" />
			<rect x="6" y="7" width="3" height="1" fill="#000000" />
			<rect x="10" y="7" width="1" height="1" fill="#000000" />
			<rect x="12" y="7" width="1" height="1" fill="#000000" />
			<rect x="14" y="7" width="2" height="1" fill="#000000" />
			<rect x="17" y="7" width="2" height="1" fill="#000000" />
			<rect x="21" y="7" width="1" height="1" fill="#000000" />
			<rect x="23" y="7" width="1" height="1" fill="#000000" />
			<rect x="26" y="7" width="1" height="1" fill="#000000" />
			<rect x="28" y="7" width="3" height="1" fill="#000000" />
			<rect x="32" y="7" width="1" height="1" fill="#000000" />
			<rect x="4" y="8" width="1" height="1" fill="#000000" />
			<rect x="6" y="8" width="3" height="1" fill="#000000" />
			<rect x="10" y="8" width="1" height="1" fill="#000000" />
			<rect x="13" y="8" width="1" height="1" fill="#000000" />
			<rect x="16" y="8" width="2" height="1" fill="#000000" />
			<rect x="19" y="8" width="2" height="1" fill="#000000" />
			<rect x="22" y="8" width="1" height="1" fill="#000000" />
			<rect x="26" y="8" width="1" height="1" fill="#000000" />
			<rect x="28" y="8" width="3" height="1" fill="#000000" />
			<rect x="32" y="8" width="1" height="1" fill="#000000" />
			<rect x="4" y="9" width="1" height="1" fill="#000000" />
			<rect x="10" y="9" width="1" height="1" fill="#000000" />
			<rect x="14" y="9" width="1" height="1" fill="#000000" />
			<rect x="16" y="9" width="1" height="1" fill="#000000" />
			<rect x="18" y="9" width="4" height="1" fill="#000000" />
			<rect x="23" y="9" width="1" height="1" fill="#000000" />
			<rect x="26" y="9" width="1" height="1" fill="#000000" />
			<rect x="32" y="9" width="1" height="1" fill="#000000" />
			<rect x="4" y="10" width="7" height="1" fill="#000000" />
			<rect x="12" y="10" width="1" height="1" fill="#000000" />
			<rect x="14" y="10" width="1" height="1" fill="#000000" />
			<rect x="16" y="10" width="1" height="1" fill="#000000" />
			<rect x="18" y="10" width="1" height="1" fill="#000000" />
			<rect x="20" y="10" width="1" height="1" fill="#000000" />
			<rect x="22" y="10" width="1" height="1" fill="#000000" />
			<rect x="24" y="10" width="1" height="1" fill="#000000" />
			<rect x="26" y="10" width="7" height="1" fill="#000000" />
			<rect x="13" y="11" width="1" height="1" fill="#000000" />
			<rect x="15" y="11" width="4" height="1" fill="#000000" />
			<rect x="21" y="11" width="1" height="1" fill="#000000" />
			<rect x="23" y="11" width="2" height="1" fill="#000000" />
			<rect x="6" y="12" width="1" height="1" fill="#000000" />
			<rect x="8" y="12" width="3" height="1" fill="#000000" />
			<rect x="12" y="12" width="3" height="1" fill="#000000" />
			<rect x="17" y="12" width="4" height="1" fill="#000000" />
			<rect x="22" y="12" width="1" height="1" fill="#000000" />
			<rect x="24" y="12" width="2" height="1" fill="#000000" />
			<rect x="29" y="12" width="1" height="1" fill="#000000" />
			<rect x="32" y="12" width="1" height="1" fill="#000000" />
			<rect x="7" y="13" width="1" height="1" fill="#000000" />
			<rect x="12" y="13" width="2" height="1" fill="#000000" />
			<rect x="15" y="13" width="1" height="1" fill="#000000" />
			<rect x="17" y="13" width="1" height="1" fill="#000000" />
			<rect x="19" y="13" width="1" height="1" fill="#000000" />
			<rect x="27" y="13" width="3" height="1" fill="#000000" />
			<rect x="31" y="13" width="1" height="1" fill="#000000" />
			<rect x="4" y="14" width="1" height="1" fill="#000000" />
			<rect x="6" y="14" width="1" height="1" fill="#000000" />
			<rect x="8" y="14" width="10" height="1" fill="#000000" />
			<rect x="20" y="14" width="1" height="1" fill="#000000" />
			<rect x="23" y="14" width="1" height="1" fill="#000000" />
			<rect x="25" y="14" width="1" height="1" fill="#000000" />
			<rect x="27" y="14" width="2" height="1" fill="#000000" />
			<rect x="30" y="14" width="3" height="1" fill="#000000" />
			<rect x="6" y="15" width="1" height="1" fill="#000000" />
			<rect x="8" y="15" width="1" height="1" fill="#000000" />
			<rect x="12" y="15" width="1" height="1" fill="#000000" />
			<rect x="18" y="15" width="1" height="1" fill="#000000" />
			<rect x="20" y="15" width="2" height="1" fill="#000000" />
			<rect x="23" y="15" width="3" height="1" fill="#000000" />
			<rect x="28" y="15" width="2" height="1" fill="#000000" />
			<rect x="32" y="15" width="1" height="1" fill="#000000" />
			<rect x="4" y="16" width="1" height="1" fill="#000000" />
			<rect x="8" y="16" width="3" height="1" fill="#000000" />
			<rect x="13" y="16" width="1" height="1" fill="#000000" />
			<rect x="15" y="16" width="2" height="1" fill="#000000" />
			<rect x="18" y="16" width="2" height="1" fill="#000000" />
			<rect x="23" y="16" width="1" height="1" fill="#000000" />
			<rect x="25" y="16" width="3" height="1" fill="#000000" />
			<rect x="6" y="17" width="1" height="1" fill="#000000" />
			<rect x="8" y="17" width="1" height="1" fill="#000000" />
			<rect x="14" y="17" width="1" height="1" fill="#000000" />
			<rect x="16" y="17" width="2" height="1" fill="#000000" />
			<rect x="19" y="17" width="1" height="1" fill="#000000" />
			<rect x="23" y="17" width="3" height="1" fill="#000000" />
			<rect x="27" y="17" width="1" height="1" fill="#000000" />
			<rect x="29" y="17" width="1" height="1" fill="#000000" />
			<rect x="4" y="18" width="1" height="1" fill="#000000" />
			<rect x="6" y="18" width="2" height="1" fill="#000000" />
			<rect x="9" y="18" width="5" height="1" fill="#000000" />
			<rect x="16" y="18" width="6" height="1" fill="#000000" />
			<rect x="24" y="18" width="2" height="1" fill="#000000" />
			<rect x="27" y="18" width="2" height="1" fill="#000000" />
			<rect x="30" y="18" width="2" height="1" fill="#000000" />
			<rect x="4" y="19" width="1" height="1" fill="#000000" />
			<rect x="6" y="19" width="1" height="1" fill="#000000" />
			<rect x="8" y="19" width="1" height="1" fill="#000000" />
			<rect x="11" y="19" width="1" height="1" fill="#000000" />
			<rect x="13" y="19" width="1" height="1" fill="#000000" />
			<rect x="16" y="19" width="2" height="1" fill="#000000" />
			<rect x="20" y="19" width="5" height="1" fill="#000000" />
			<rect x="27" y="19" width="1" height="1" fill="#000000" />
			<rect x="29" y="19" width="1" height="1" fill="#000000" />
			<rect x="31" y="19" width="2" height="1" fill="#000000" />
			<rect x="4" y="20" width="1" height="1" fill="#000000" />
			<rect x="6" y="20" width="3" height="1" fill="#000000" />
			<rect x="10" y="20" width="5" height="1" fill="#000000" />
			<rect x="17" y="20" width="1" height="1" fill="#000000" />
			<rect x="19" y="20" width="1" height="1" fill="#000000" />
			<rect x="21" y="20" width="2" height="1" fill="#000000" />
			<rect x="28" y="20" width="4" height="1" fill="#000000" />
			<rect x="5" y="21" width="4" height="1" fill="#000000" />
			<rect x="14" y="21" width="2" height="1" fill="#000000" />
			<rect x="17" y="21" width="7" height="1" fill="#000000" />
			<rect x="25" y="21" width="3" height="1" fill="#000000" />
			<rect x="31" y="21" width="1" height="1" fill="#000000" />
			<rect x="4" y="22" width="1" height="1" fill="#000000" />
			<rect x="6" y="22" width="3" height="1" fill="#000000" />
			<rect x="10" y="22" width="2" height="1" fill="#000000" />
			<rect x="16" y="22" width="1" height="1" fill="#000000" />
			<rect x="18" y="22" width="1" height="1" fill="#000000" />
			<rect x="21" y="22" width="1" height="1" fill="#000000" />
			<rect x="23" y="22" width="1" height="1" fill="#000000" />
			<rect x="26" y="22" width="1" height="1" fill="#000000" />
			<rect x="28" y="22" width="3" height="1" fill="#000000" />
			<rect x="5" y="23" width="1" height="1" fill="#000000" />
			<rect x="7" y="23" width="1" height="1" fill="#000000" />
			<rect x="11" y="23" width="1" height="1" fill="#000000" />
			<rect x="13" y="23" width="2" height="1" fill="#000000" />
			<rect x="16" y="23" width="5" height="1" fill="#000000" />
			<rect x="22" y="23" width="7" height="1" fill="#000000" />
			<rect x="4" y="24" width="1" height="1" fill="#000000" />
			<rect x="7" y="24" width="1" height="1" fill="#000000" />
			<rect x="9" y="24" width="3" height="1" fill="#000000" />
			<rect x="13" y="24" width="1" height="1" fill="#000000" />
			<rect x="15" y="24" width="2" height="1" fill="#000000" />
			<rect x="18" y="24" width="1" height="1" fill="#000000" />
			<rect x="20" y="24" width="1" height="1" fill="#000000" />
			<rect x="22" y="24" width="8" height="1" fill="#000000" />
			<rect x="32" y="24" width="1" height="1" fill="#000000" />
			<rect x="12" y="25" width="1" height="1" fill="#000000" />
			<rect x="14" y="25" width="4" height="1" fill="#000000" />
			<rect x="19" y="25" width="2" height="1" fill="#000000" />
			<rect x="22" y="25" width="3" height="1" fill="#000000" />
			<rect x="28" y="25" width="2" height="1" fill="#000000" />
			<rect x="31" y="25" width="1" height="1" fill="#000000" />
			<rect x="4" y="26" width="7" height="1" fill="#000000" />
			<rect x="14" y="26" width="5" height="1" fill="#000000" />
			<rect x="20" y="26" width="1" height="1" fill="#000000" />
			<rect x="22" y="26" width="1" height="1" fill="#000000" />
			<rect x="24" y="26" width="1" height="1" fill="#000000" />
			<rect x="26" y="26" width="1" height="1" fill="#000000" />
			<rect x="28" y="26" width="5" height="1" fill="#000000" />
			<rect x="4" y="27" width="1" height="1" fill="#000000" />
			<rect x="10" y="27" width="1" height="1" fill="#000000" />
			<rect x="12" y="27" width="4" height="1" fill="#000000" />
			<rect x="17" y="27" width="1" height="1" fill="#000000" />
			<rect x="20" y="27" width="1" height="1" fill="#000000" />
			<rect x="23" y="27" width="2" height="1" fill="#000000" />
			<rect x="28" y="27" width="1" height="1" fill="#000000" />
			<rect x="30" y="27" width="3" height="1" fill="#000000" />
			<rect x="4" y="28" width="1" height="1" fill="#000000" />
			<rect x="6" y="28" width="3" height="1" fill="#000000" />
			<rect x="10" y="28" width="1" height="1" fill="#000000" />
			<rect x="12" y="28" width="2" height="1" fill="#000000" />
			<rect x="17" y="28" width="1" height="1" fill="#000000" />
			<rect x="19" y="28" width="4" height="1" fill="#000000" />
			<rect x="24" y="28" width="6" height="1" fill="#000000" />
			<rect x="4" y="29" width="1" height="1" fill="#000000" />
			<rect x="6" y="29" width="3" height="1" fill="#000000" />
			<rect x="10" y="29" width="1" height="1" fill="#000000" />
			<rect x="14" y="29" width="2" height="1" fill="#000000" />
			<rect x="19" y="29" width="1" height="1" fill="#000000" />
			<rect x="21" y="29" width="2" height="1" fill="#000000" />
			<rect x="25" y="29" width="1" height="1" fill="#000000" />
			<rect x="27" y="29" width="1" height="1" fill="#000000" />
			<rect x="29" y="29" width="1" height="1" fill="#000000" />
			<rect x="31" y="29" width="1" height="1" fill="#000000" />
			<rect x="4" y="30" width="1" height="1" fill="#000000" />
			<rect x="6" y="30" width="3" height="1" fill="#000000" />
			<rect x="10" y="30" width="1" height="1" fill="#000000" />
			<rect x="12" y="30" width="1" height="1" fill="#000000" />
			<rect x="15" y="30" width="2" height="1" fill="#000000" />
			<rect x="18" y="30" width="3" height="1" fill="#000000" />
			<rect x="24" y="30" width="1" height="1" fill="#000000" />
			<rect x="26" y="30" width="1" height="1" fill="#000000" />
			<rect x="28" y="30" width="1" height="1" fill="#000000" />
			<rect x="30" y="30" width="1" height="1" fill="#000000" />
			<rect x="32" y="30" width="1" height="1" fill="#000000" />
			<rect x="4" y="31" width="1" height="1" fill="#000000" />
			<rect x="10" y="31" width="1" height="1" fill="#000000" />
			<rect x="13" y="31" width="1" height="1" fill="#000000" />
			<rect x="15" y="31" width="5" height="1" fill="#000000" />
			<rect x="27" y="31" width="1" height="1" fill="#000000" />
			<rect x="29" y="31" width="1" height="1" fill="#000000" />
			<rect x="32" y="31" width="1" height="1" fill="#000000" />
			<rect x="4" y="32" width="7" height="1" fill="#000000" />
			<rect x="13" y="32" width="2" height="1" fill="#000000" />
			<rect x="16" y="32" width="1" height="1" fill="#000000" />
			<rect x="19" y="32" width="1" height="1" fill="#000000" />
			<rect x="21" y="32" width="1" height="1" fill="#000000" />
			<rect x="25" y="32" width="2" height="1" fill="#000000" />
			<rect x="30" y="32" width="1" height="1" fill="#000000" />
			<rect x="32" y="32" width="1" height="1" fill="#000000" />
		</g>
	</g>
</svg>
