<?xml version="1.0" encoding="UTF-8" standalone="yes"?>
<!-- Created with qrencode 3.4.2 (http://fukuchi.org/works/qrencode/index.html.en) -->
<svg width="4.76cm" height="4.76cm" viewBox="0 0 45 45" preserveAspectRatio="none" version="1.1" xmlns="http://www.w3.org/2000/svg">
	<g id="QRcode">
		<rect x="0" y="0" width="45" height="45" fill="#ffffff" />
		<g id="Pattern">
			<rect x="4" y="4" width="7" height="1" fill="#000000" />
			<rect x="12" y="4" width="3" height="1" fill="#000000" />
			<rect x="16" y="4" width="1" height="1" fill="#000000" />
			<rect x="19" y="4" width="7" height="1" fill="#000000" />
			<rect x="27" y="4" width="2" height="1" fill="#000000" />
			<rect x="30" y="4" width="1" height="1" fill="#000000" />
			<rect x="32" y="4" width="1" height="1" fill="#000000" />
			<rect x="34" y="4" width="7" height="1" fill="#000000" />
			<rect x="4" y="5" width="1" height="1" fill="#000000" />
			<rect x="10" y="5" width="1" height="1" fill="#000000" />
			<rect x="12" y="5" width="1" height="1" fill="#000000" />
			<rect x="15" y="5" width="2" height="1" fill="#000000" />
			<rect x="19" y="5" width="5" height="1" fill="#000000" />
			<rect x="25" y="5" width="1" height="1" fill="#000000" />
			<rect x="27" y="5" width="2" height="1" fill="#000000" />
			<rect x="30" y="5" width="3" height="1" fill="#000000" />
			<rect x="34" y="5" width="1" height="1" fill="#000000" />
			<rect x="40" y="5" width="1" height="1" fill="#000000" />
			<rect x="4" y="6" width="1" height="1" fill="#000000" />
			<rect x="6" y="6" width="3" height="1" fill="#000000" />
			<rect x="10" y="6" width="1" height="1" fill="#000000" />
			<rect x="12" y="6" width="1" height="1" fill="#000000" />
			<rect x="15" y="6" width="8" height="1" fill="#000000" />
			<rect x="24" y="6" width="1" height="1" fill="#000000" />
			<rect x="26" y="6" width="1" height="1" fill="#000000" />
			<rect x="30" y="6" width="3" height="1" fill="#000000" />
			<rect x="34" y="6" width="1" height="1" fill="#000000" />
			<rect x="36" y="6" width="3" height="1" fill="#000000" />
			<rect x="40" y="6" width="1" height="1" fill="#000000" />
			<rect x="4" y="7" width="1" height="1" fill="#000000" />
			<rect x="6" y="7" width="3" height="1" fill="#000000" />
			<rect x="10" y="7" width="1" height="1" fill="#000000" />
			<rect x="15" y="7" width="1" height="1" fill="#000000" />
			<rect x="19" y="7" width="1" height="1" fill="#000000" />
			<rect x="21" y="7" width="1" height="1" fill="#000000" />
			<rect x="26" y="7" width="2" height="1" fill="#000000" />
			<rect x="29" y="7" width="2" height="1" fill="#000000" />
			<rect x="34" y="7" width="1" height="1" fill="#000000" />
			<rect x="36" y="7" width="3" height="1" fill="#000000" />
			<rect x="40" y="7" width="1" height="1" fill="#000000" />
			<rect x="4" y="8" width="1" height="1" fill="#000000" />
			<rect x="6" y="8" width="3" height="1" fill="#000000" />
			<rect x="10" y="8" width="1" height="1" fill="#000000" />
			<rect x="14" y="8" width="1" height="1" fill="#000000" />
			<rect x="16" y="8" width="2" height="1" fill="#000000" />
			<rect x="19" y="8" width="3" height="1" fill="#000000" />
			<rect x="26" y="8" width="2" height="1" fill="#000000" />
			<rect x="29" y="8" width="1" height="1" fill="#000000" />
			<rect x="34" y="8" width="1" height="1" fill="#000000" />
			<rect x="36" y="8" width="3" height="1" fill="#000000" />
			<rect x="40" y="8" width="1" height="1" fill="#000000" />
			<rect x="4" y="9" width="1" height="1" fill="#000000" />
			<rect x="10" y="9" width="1" height="1" fill="#000000" />
			<rect x="12" y="9" width="4" height="1" fill="#000000" />
			<rect x="17" y="9" width="5" height="1" fill="#000000" />
			<rect x="25" y="9" width="1" height="1" fill="#000000" />
			<rect x="27" y="9" width="6" height="1" fill="#000000" />
			<rect x="34" y="9" width="1" height="1" fill="#000000" />
			<rect x="40" y="9" width="1" height="1" fill="#000000" />
			<rect x="4" y="10" width="7" height="1" fill="#000000" />
			<rect x="12" y="10" width="1" height="1" fill="#000000" />
			<rect x="14" y="10" width="1" height="1" fill="#000000" />
			<rect x="16" y="10" width="1" height="1" fill="#000000" />
			<rect x="18" y="10" width="1" height="1" fill="#000000" />
			<rect x="20" y="10" width="1" height="1" fill="#000000" />
			<rect x="22" y="10" width="1" height="1" fill="#000000" />
			<rect x="24" y="10" width="1" height="1" fill="#000000" />
			<rect x="26" y="10" width="1" height="1" fill="#000000" />
			<rect x="28" y="10" width="1" height="1" fill="#000000" />
			<rect x="30" y="10" width="1" height="1" fill="#000000" />
			<rect x="32" y="10" width="1" height="1" fill="#000000" />
			<rect x="34" y="10" width="7" height="1" fill="#000000" />
			<rect x="12" y="11" width="2" height="1" fill="#000000" />
			<rect x="15" y="11" width="3" height="1" fill="#000000" />
			<rect x="20" y="11" width="1" height="1" fill="#000000" />
			<rect x="22" y="11" width="1" height="1" fill="#000000" />
			<rect x="26" y="11" width="3" height="1" fill="#000000" />
			<rect x="32" y="11" width="1" height="1" fill="#000000" />
			<rect x="6" y="12" width="3" height="1" fill="#000000" />
			<rect x="10" y="12" width="1" height="1" fill="#000000" />
			<rect x="12" y="12" width="9" height="1" fill="#000000" />
			<rect x="22" y="12" width="1" height="1" fill="#000000" />
			<rect x="25" y="12" width="2" height="1" fill="#000000" />
			<rect x="28" y="12" width="3" height="1" fill="#000000" />
			<rect x="33" y="12" width="3" height="1" fill="#000000" />
			<rect x="38" y="12" width="3" height="1" fill="#000000" />
			<rect x="7" y="13" width="1" height="1" fill="#000000" />
			<rect x="14" y="13" width="3" height="1" fill="#000000" />
			<rect x="23" y="13" width="2" height="1" fill="#000000" />
			<rect x="26" y="13" width="1" height="1" fill="#000000" />
			<rect x="29" y="13" width="1" height="1" fill="#000000" />
			<rect x="33" y="13" width="1" height="1" fill="#000000" />
			<rect x="35" y="13" width="1" height="1" fill="#000000" />
			<rect x="37" y="13" width="1" height="1" fill="#000000" />
			<rect x="5" y="14" width="2" height="1" fill="#000000" />
			<rect x="8" y="14" width="1" height="1" fill="#000000" />
			<rect x="10" y="14" width="2" height="1" fill="#000000" />
			<rect x="13" y="14" width="4" height="1" fill="#000000" />
			<rect x="18" y="14" width="5" height="1" fill="#000000" />
			<rect x="24" y="14" width="1" height="1" fill="#000000" />
			<rect x="26" y="14" width="7" height="1" fill="#000000" />
			<rect x="34" y="14" width="1" height="1" fill="#000000" />
			<rect x="38" y="14" width="1" height="1" fill="#000000" />
			<rect x="40" y="14" width="1" height="1" fill="#000000" />
			<rect x="7" y="15" width="1" height="1" fill="#000000" />
			<rect x="9" y="15" width="1" height="1" fill="#000000" />
			<rect x="11" y="15" width="2" height="1" fill="#000000" />
			<rect x="14" y="15" width="2" height="1" fill="#000000" />
			<rect x="17" y="15" width="2" height="1" fill="#000000" />
			<rect x="20" y="15" width="1" height="1" fill="#000000" />
			<rect x="22" y="15" width="2" height="1" fill="#000000" />
			<rect x="27" y="15" width="1" height="1" fill="#000000" />
			<rect x="30" y="15" width="3" height="1" fill="#000000" />
			<rect x="34" y="15" width="2" height="1" fill="#000000" />
			<rect x="39" y="15" width="2" height="1" fill="#000000" />
			<rect x="4" y="16" width="1" height="1" fill="#000000" />
			<rect x="6" y="16" width="1" height="1" fill="#000000" />
			<rect x="10" y="16" width="1" height="1" fill="#000000" />
			<rect x="15" y="16" width="2" height="1" fill="#000000" />
			<rect x="18" y="16" width="1" height="1" fill="#000000" />
			<rect x="21" y="16" width="1" height="1" fill="#000000" />
			<rect x="26" y="16" width="1" height="1" fill="#000000" />
			<rect x="28" y="16" width="7" height="1" fill="#000000" />
			<rect x="36" y="16" width="5" height="1" fill="#000000" />
			<rect x="4" y="17" width="2" height="1" fill="#000000" />
			<rect x="7" y="17" width="1" height="1" fill="#000000" />
			<rect x="11" y="17" width="1" height="1" fill="#000000" />
			<rect x="13" y="17" width="1" height="1" fill="#000000" />
			<rect x="16" y="17" width="1" height="1" fill="#000000" />
			<rect x="20" y="17" width="1" height="1" fill="#000000" />
			<rect x="32" y="17" width="2" height="1" fill="#000000" />
			<rect x="35" y="17" width="1" height="1" fill="#000000" />
			<rect x="37" y="17" width="2" height="1" fill="#000000" />
			<rect x="6" y="18" width="1" height="1" fill="#000000" />
			<rect x="8" y="18" width="1" height="1" fill="#000000" />
			<rect x="10" y="18" width="2" height="1" fill="#000000" />
			<rect x="13" y="18" width="1" height="1" fill="#000000" />
			<rect x="15" y="18" width="1" height="1" fill="#000000" />
			<rect x="17" y="18" width="2" height="1" fill="#000000" />
			<rect x="20" y="18" width="1" height="1" fill="#000000" />
			<rect x="22" y="18" width="4" height="1" fill="#000000" />
			<rect x="27" y="18" width="2" height="1" fill="#000000" />
			<rect x="31" y="18" width="1" height="1" fill="#000000" />
			<rect x="33" y="18" width="5" height="1" fill="#000000" />
			<rect x="39" y="18" width="2" height="1" fill="#000000" />
			<rect x="8" y="19" width="1" height="1" fill="#000000" />
			<rect x="11" y="19" width="2" height="1" fill="#000000" />
			<rect x="16" y="19" width="1" height="1" fill="#000000" />
			<rect x="18" y="19" width="1" height="1" fill="#000000" />
			<rect x="20" y="19" width="1" height="1" fill="#000000" />
			<rect x="23" y="19" width="3" height="1" fill="#000000" />
			<rect x="28" y="19" width="1" height="1" fill="#000000" />
			<rect x="31" y="19" width="2" height="1" fill="#000000" />
			<rect x="34" y="19" width="1" height="1" fill="#000000" />
			<rect x="39" y="19" width="1" height="1" fill="#000000" />
			<rect x="5" y="20" width="2" height="1" fill="#000000" />
			<rect x="9" y="20" width="2" height="1" fill="#000000" />
			<rect x="16" y="20" width="1" height="1" fill="#000000" />
			<rect x="20" y="20" width="1" height="1" fill="#000000" />
			<rect x="23" y="20" width="1" height="1" fill="#000000" />
			<rect x="25" y="20" width="5" height="1" fill="#000000" />
			<rect x="31" y="20" width="1" height="1" fill="#000000" />
			<rect x="33" y="20" width="4" height="1" fill="#000000" />
			<rect x="38" y="20" width="3" height="1" fill="#000000" />
			<rect x="5" y="21" width="1" height="1" fill="#000000" />
			<rect x="7" y="21" width="1" height="1" fill="#000000" />
			<rect x="9" y="21" width="1" height="1" fill="#000000" />
			<rect x="12" y="21" width="1" height="1" fill="#000000" />
			<rect x="15" y="21" width="7" height="1" fill="#000000" />
			<rect x="26" y="21" width="1" height="1" fill="#000000" />
			<rect x="28" y="21" width="2" height="1" fill="#000000" />
			<rect x="32" y="21" width="1" height="1" fill="#000000" />
			<rect x="35" y="21" width="1" height="1" fill="#000000" />
			<rect x="38" y="21" width="1" height="1" fill="#000000" />
			<rect x="4" y="22" width="4" height="1" fill="#000000" />
			<rect x="9" y="22" width="3" height="1" fill="#000000" />
			<rect x="16" y="22" width="1" height="1" fill="#000000" />
			<rect x="19" y="22" width="1" height="1" fill="#000000" />
			<rect x="23" y="22" width="1" height="1" fill="#000000" />
			<rect x="27" y="22" width="2" height="1" fill="#000000" />
			<rect x="30" y="22" width="3" height="1" fill="#000000" />
			<rect x="35" y="22" width="1" height="1" fill="#000000" />
			<rect x="39" y="22" width="2" height="1" fill="#000000" />
			<rect x="5" y="23" width="2" height="1" fill="#000000" />
			<rect x="8" y="23" width="2" height="1" fill="#000000" />
			<rect x="11" y="23" width="1" height="1" fill="#000000" />
			<rect x="14" y="23" width="1" height="1" fill="#000000" />
			<rect x="16" y="23" width="2" height="1" fill="#000000" />
			<rect x="21" y="23" width="2" height="1" fill="#000000" />
			<rect x="24" y="23" width="5" height="1" fill="#000000" />
			<rect x="31" y="23" width="1" height="1" fill="#000000" />
			<rect x="34" y="23" width="3" height="1" fill="#000000" />
			<rect x="40" y="23" width="1" height="1" fill="#000000" />
			<rect x="4" y="24" width="3" height="1" fill="#000000" />
			<rect x="9" y="24" width="3" height="1" fill="#000000" />
			<rect x="13" y="24" width="1" height="1" fill="#000000" />
			<rect x="16" y="24" width="1" height="1" fill="#000000" />
			<rect x="19" y="24" width="4" height="1" fill="#000000" />
			<rect x="25" y="24" width="1" height="1" fill="#000000" />
			<rect x="27" y="24" width="1" height="1" fill="#000000" />
			<rect x="29" y="24" width="3" height="1" fill="#000000" />
			<rect x="33" y="24" width="7" height="1" fill="#000000" />
			<rect x="6" y="25" width="3" height="1" fill="#000000" />
			<rect x="12" y="25" width="2" height="1" fill="#000000" />
			<rect x="15" y="25" width="1" height="1" fill="#000000" />
			<rect x="17" y="25" width="3" height="1" fill="#000000" />
			<rect x="21" y="25" width="2" height="1" fill="#000000" />
			<rect x="26" y="25" width="2" height="1" fill="#000000" />
			<rect x="29" y="25" width="1" height="1" fill="#000000" />
			<rect x="35" y="25" width="1" height="1" fill="#000000" />
			<rect x="38" y="25" width="1" height="1" fill="#000000" />
			<rect x="5" y="26" width="1" height="1" fill="#000000" />
			<rect x="7" y="26" width="2" height="1" fill="#000000" />
			<rect x="10" y="26" width="9" height="1" fill="#000000" />
			<rect x="20" y="26" width="2" height="1" fill="#000000" />
			<rect x="25" y="26" width="1" height="1" fill="#000000" />
			<rect x="27" y="26" width="1" height="1" fill="#000000" />
			<rect x="31" y="26" width="1" height="1" fill="#000000" />
			<rect x="33" y="26" width="2" height="1" fill="#000000" />
			<rect x="38" y="26" width="3" height="1" fill="#000000" />
			<rect x="4" y="27" width="1" height="1" fill="#000000" />
			<rect x="6" y="27" width="4" height="1" fill="#000000" />
			<rect x="11" y="27" width="4" height="1" fill="#000000" />
			<rect x="16" y="27" width="3" height="1" fill="#000000" />
			<rect x="22" y="27" width="1" height="1" fill="#000000" />
			<rect x="24" y="27" width="1" height="1" fill="#000000" />
			<rect x="30" y="27" width="1" height="1" fill="#000000" />
			<rect x="33" y="27" width="3" height="1" fill="#000000" />
			<rect x="39" y="27" width="1" height="1" fill="#000000" />
			<rect x="6" y="28" width="1" height="1" fill="#000000" />
			<rect x="8" y="28" width="5" height="1" fill="#000000" />
			<rect x="15" y="28" width="1" height="1" fill="#000000" />
			<rect x="17" y="28" width="1" height="1" fill="#000000" />
			<rect x="20" y="28" width="7" height="1" fill="#000000" />
			<rect x="28" y="28" width="3" height="1" fill="#000000" />
			<rect x="33" y="28" width="2" height="1" fill="#000000" />
			<rect x="36" y="28" width="1" height="1" fill="#000000" />
			<rect x="38" y="28" width="1" height="1" fill="#000000" />
			<rect x="40" y="28" width="1" height="1" fill="#000000" />
			<rect x="4" y="29" width="2" height="1" fill="#000000" />
			<rect x="7" y="29" width="1" height="1" fill="#000000" />
			<rect x="12" y="29" width="3" height="1" fill="#000000" />
			<rect x="16" y="29" width="1" height="1" fill="#000000" />
			<rect x="18" y="29" width="1" height="1" fill="#000000" />
			<rect x="20" y="29" width="1" height="1" fill="#000000" />
			<rect x="23" y="29" width="3" height="1" fill="#000000" />
			<rect x="28" y="29" width="1" height="1" fill="#000000" />
			<rect x="32" y="29" width="1" height="1" fill="#000000" />
			<rect x="35" y="29" width="1" height="1" fill="#000000" />
			<rect x="37" y="29" width="3" height="1" fill="#000000" />
			<rect x="4" y="30" width="1" height="1" fill="#000000" />
			<rect x="6" y="30" width="1" height="1" fill="#000000" />
			<rect x="8" y="30" width="1" height="1" fill="#000000" />
			<rect x="10" y="30" width="1" height="1" fill="#000000" />
			<rect x="12" y="30" width="1" height="1" fill="#000000" />
			<rect x="15" y="30" width="3" height="1" fill="#000000" />
			<rect x="19" y="30" width="1" height="1" fill="#000000" />
			<rect x="22" y="30" width="1" height="1" fill="#000000" />
			<rect x="26" y="30" width="1" height="1" fill="#000000" />
			<rect x="29" y="30" width="1" height="1" fill="#000000" />
			<rect x="31" y="30" width="1" height="1" fill="#000000" />
			<rect x="34" y="30" width="2" height="1" fill="#000000" />
			<rect x="37" y="30" width="1" height="1" fill="#000000" />
			<rect x="39" y="30" width="2" height="1" fill="#000000" />
			<rect x="4" y="31" width="1" height="1" fill="#000000" />
			<rect x="6" y="31" width="2" height="1" fill="#000000" />
			<rect x="9" y="31" width="1" height="1" fill="#000000" />
			<rect x="14" y="31" width="1" height="1" fill="#000000" />
			<rect x="20" y="31" width="2" height="1" fill="#000000" />
			<rect x="23" y="31" width="1" height="1" fill="#000000" />
			<rect x="25" y="31" width="1" height="1" fill="#000000" />
			<rect x="27" y="31" width="2" height="1" fill="#000000" />
			<rect x="30" y="31" width="4" height="1" fill="#000000" />
			<rect x="35" y="31" width="1" height="1" fill="#000000" />
			<rect x="39" y="31" width="2" height="1" fill="#000000" />
			<rect x="4" y="32" width="1" height="1" fill="#000000" />
			<rect x="6" y="32" width="1" height="1" fill="#000000" />
			<rect x="8" y="32" width="1" height="1" fill="#000000" />
			<rect x="10" y="32" width="3" height="1" fill="#000000" />
			<rect x="18" y="32" width="2" height="1" fill="#000000" />
			<rect x="23" y="32" width="3" height="1" fill="#000000" />
			<rect x="29" y="32" width="2" height="1" fill="#000000" />
			<rect x="32" y="32" width="9" height="1" fill="#000000" />
			<rect x="12" y="33" width="1" height="1" fill="#000000" />
			<rect x="16" y="33" width="2" height="1" fill="#000000" />
			<rect x="19" y="33" width="1" height="1" fill="#000000" />
			<rect x="23" y="33" width="1" height="1" fill="#000000" />
			<rect x="25" y="33" width="3" height="1" fill="#000000" />
			<rect x="29" y="33" width="1" height="1" fill="#000000" />
			<rect x="31" y="33" width="2" height="1" fill="#000000" />
			<rect x="36" y="33" width="1" height="1" fill="#000000" />
			<rect x="4" y="34" width="7" height="1" fill="#000000" />
			<rect x="15" y="34" width="3" height="1" fill="#000000" />
			<rect x="23" y="34" width="4" height="1" fill="#000000" />
			<rect x="29" y="34" width="2" height="1" fill="#000000" />
			<rect x="32" y="34" width="1" height="1" fill="#000000" />
			<rect x="34" y="34" width="1" height="1" fill="#000000" />
			<rect x="36" y="34" width="2" height="1" fill="#000000" />
			<rect x="39" y="34" width="2" height="1" fill="#000000" />
			<rect x="4" y="35" width="1" height="1" fill="#000000" />
			<rect x="10" y="35" width="1" height="1" fill="#000000" />
			<rect x="18" y="35" width="1" height="1" fill="#000000" />
			<rect x="22" y="35" width="4" height="1" fill="#000000" />
			<rect x="27" y="35" width="1" height="1" fill="#000000" />
			<rect x="32" y="35" width="1" height="1" fill="#000000" />
			<rect x="36" y="35" width="1" height="1" fill="#000000" />
			<rect x="4" y="36" width="1" height="1" fill="#000000" />
			<rect x="6" y="36" width="3" height="1" fill="#000000" />
			<rect x="10" y="36" width="1" height="1" fill="#000000" />
			<rect x="12" y="36" width="1" height="1" fill="#000000" />
			<rect x="14" y="36" width="2" height="1" fill="#000000" />
			<rect x="21" y="36" width="1" height="1" fill="#000000" />
			<rect x="27" y="36" width="1" height="1" fill="#000000" />
			<rect x="29" y="36" width="8" height="1" fill="#000000" />
			<rect x="38" y="36" width="3" height="1" fill="#000000" />
			<rect x="4" y="37" width="1" height="1" fill="#000000" />
			<rect x="6" y="37" width="3" height="1" fill="#000000" />
			<rect x="10" y="37" width="1" height="1" fill="#000000" />
			<rect x="12" y="37" width="2" height="1" fill="#000000" />
			<rect x="15" y="37" width="6" height="1" fill="#000000" />
			<rect x="22" y="37" width="1" height="1" fill="#000000" />
			<rect x="24" y="37" width="1" height="1" fill="#000000" />
			<rect x="26" y="37" width="2" height="1" fill="#000000" />
			<rect x="34" y="37" width="1" height="1" fill="#000000" />
			<rect x="36" y="37" width="1" height="1" fill="#000000" />
			<rect x="4" y="38" width="1" height="1" fill="#000000" />
			<rect x="6" y="38" width="3" height="1" fill="#000000" />
			<rect x="10" y="38" width="1" height="1" fill="#000000" />
			<rect x="12" y="38" width="1" height="1" fill="#000000" />
			<rect x="14" y="38" width="2" height="1" fill="#000000" />
			<rect x="17" y="38" width="3" height="1" fill="#000000" />
			<rect x="23" y="38" width="3" height="1" fill="#000000" />
			<rect x="30" y="38" width="1" height="1" fill="#000000" />
			<rect x="33" y="38" width="1" height="1" fill="#000000" />
			<rect x="35" y="38" width="1" height="1" fill="#000000" />
			<rect x="38" y="38" width="1" height="1" fill="#000000" />
			<rect x="40" y="38" width="1" height="1" fill="#000000" />
			<rect x="4" y="39" width="1" height="1" fill="#000000" />
			<rect x="10" y="39" width="1" height="1" fill="#000000" />
			<rect x="13" y="39" width="1" height="1" fill="#000000" />
			<rect x="15" y="39" width="1" height="1" fill="#000000" />
			<rect x="19" y="39" width="1" height="1" fill="#000000" />
			<rect x="23" y="39" width="1" height="1" fill="#000000" />
			<rect x="25" y="39" width="1" height="1" fill="#000000" />
			<rect x="27" y="39" width="2" height="1" fill="#000000" />
			<rect x="30" y="39" width="3" height="1" fill="#000000" />
			<rect x="34" y="39" width="3" height="1" fill="#000000" />
			<rect x="40" y="39" width="1" height="1" fill="#000000" />
			<rect x="4" y="40" width="7" height="1" fill="#000000" />
			<rect x="13" y="40" width="1" height="1" fill="#000000" />
			<rect x="16" y="40" width="1" height="1" fill="#000000" />
			<rect x="18" y="40" width="2" height="1" fill="#000000" />
			<rect x="23" y="40" width="1" height="1" fill="#000000" />
			<rect x="26" y="40" width="1" height="1" fill="#000000" />
			<rect x="28" y="40" width="2" height="1" fill="#000000" />
			<rect x="33" y="40" width="1" height="1" fill="#000000" />
			<rect x="37" y="40" width="4" height="1" fill="#000000" />
		</g>
	</g>
</svg>
